<?xml version="1.0" encoding="UTF-8"?>
<svg version="1.1" xmlns="http://www.w3.org/2000/svg" width="248" height="256">
<path d="M0 0 C28.71 0 57.42 0 87 0 C91.50078314 11.25195785 91.50078314 11.25195785 92.88085938 15.24780273 C93.19718323 16.16007126 93.51350708 17.07233978 93.8394165 18.01225281 C94.17084656 18.97629532 94.50227661 19.94033783 94.84375 20.93359375 C95.20531189 21.97945145 95.56687378 23.02530914 95.93939209 24.1028595 C97.12891924 27.54682907 98.31459273 30.9921104 99.5 34.4375 C100.34208572 36.87924442 101.18420885 39.32097594 102.02636719 41.76269531 C108.58855424 60.80989 115.05841267 79.88778195 121.50827026 98.97329712 C127.71164905 117.3256213 134.00611627 135.6433405 140.42089844 153.92285156 C140.71071091 154.74886871 141.00052338 155.57488586 141.29911804 156.42593384 C141.82643923 157.92767586 142.3545198 159.42915161 142.88362122 160.93026733 C144.64358037 165.93572179 146.33488295 170.96223511 148 176 C150.92513617 168.98830908 153.40267601 161.91586706 155.66015625 154.6640625 C156.00266418 153.57527802 156.34517212 152.48649353 156.69805908 151.36471558 C157.82308888 147.78591409 158.94278803 144.20546847 160.0625 140.625 C161.05411601 137.46614686 162.046579 134.30756127 163.03928852 131.14905167 C163.24132987 130.50619091 163.44337122 129.86333015 163.65153503 129.20098877 C163.85520376 128.55296547 164.05887249 127.90494217 164.268713 127.2372818 C164.89542911 125.2425216 165.52160488 123.24759247 166.1476593 121.25262451 C169.15870757 111.66011763 172.19109786 102.07451418 175.234375 92.4921875 C175.66570138 91.1335196 176.09701148 89.77484653 176.52830505 88.41616821 C178.19422986 83.16864157 179.86021721 77.92113607 181.52932739 72.67462158 C186.85444741 55.95780132 186.85444741 55.95780132 192.0078125 39.1875 C192.38695801 37.93324219 192.76610352 36.67898437 193.15673828 35.38671875 C195.09223735 27.61334204 195.0806125 20.20327674 191.40625 12.97265625 C188.04059043 8.2513838 183.13987007 5.46667872 178 3 C178 2.01 178 1.02 178 0 C201.1 0 224.2 0 248 0 C247.24241756 5.30307705 246.25881845 9.65699646 244.46484375 14.59375 C244.19893936 15.34414551 243.93303497 16.09454102 243.65907288 16.86767578 C243.07092063 18.52719215 242.48009195 20.18576174 241.88696289 21.84350586 C240.18763875 26.59803041 238.51322881 31.36129492 236.83984375 36.125 C236.4663681 37.18779175 236.09289246 38.2505835 235.70809937 39.34558105 C230.60828016 53.90866308 225.71010783 68.54056489 220.78662872 83.16394424 C213.8703507 103.7032541 206.93272376 124.23059681 199.73123169 144.67205811 C192.09565396 166.36955447 184.79714223 188.18308061 177.46068573 209.98306942 C176.40172868 213.12936854 175.34198471 216.27540242 174.28224564 219.42143822 C173.55664036 221.57702962 172.8325009 223.73310912 172.10848999 225.88923645 C171.20982116 228.56515153 170.30040147 231.23707043 169.38424683 233.90704346 C168.37879282 236.84554957 167.42933272 239.79769725 166.49783325 242.76043701 C165.98789045 244.32656135 165.47763429 245.8925837 164.96704102 247.45849609 C164.7441059 248.19792765 164.52117079 248.9373592 164.29148006 249.69919777 C163.60646057 251.75790405 163.60646057 251.75790405 162 255 C158.65647105 256.43199558 156.34663414 256.11512869 153.01098633 254.84765625 C152.26283157 254.56986328 151.51467682 254.29207031 150.74385071 254.00585938 C149.94795029 253.69455078 149.15204987 253.38324219 148.33203125 253.0625 C147.07974983 252.58586914 147.07974983 252.58586914 145.8021698 252.09960938 C144.03552827 251.42312979 142.27135083 250.74018483 140.50952148 250.05126953 C137.84614191 249.01311325 135.1732451 248.00333762 132.49804688 246.99609375 C123.5703462 243.57926907 115.42722307 240.17937105 108 234 C106.59041016 232.89591797 106.59041016 232.89591797 105.15234375 231.76953125 C86.29521178 215.10740935 78.32155102 192.48354541 70.1875 169.375 C69.27403099 166.80623446 68.35632589 164.23899084 67.43823242 161.671875 C66.02213404 157.70979778 64.60714191 153.74734633 63.19837952 149.78265381 C58.88057322 137.63203413 54.47531928 125.51394656 50.05371094 113.40072632 C44.65779631 98.6167534 39.28462502 83.82527248 33.9921875 69.00390625 C33.1760459 66.72199787 32.35988409 64.44009672 31.54370117 62.15820312 C30.02189772 57.90261332 28.50741043 53.64452158 26.99731445 49.38476562 C23.94099029 40.80564274 20.83129138 32.27614821 17.20703125 23.91796875 C16.93392624 23.28516495 16.66082123 22.65236115 16.37944031 22.00038147 C12.68984024 13.72725909 8.23722408 7.86645212 0 4 C0 2.68 0 1.36 0 0 Z " fill="#96151D" transform="translate(0,0)"/>
</svg>
